<?xml version="1.0" encoding="utf-8"?>
<!-- Generator: Adobe Illustrator 16.0.0, SVG Export Plug-In . SVG Version: 6.00 Build 0)  -->
<!DOCTYPE svg PUBLIC "-//W3C//DTD SVG 1.1//EN" "http://www.w3.org/Graphics/SVG/1.1/DTD/svg11.dtd">
<svg version="1.1" id="Layer_1" xmlns="http://www.w3.org/2000/svg" xmlns:xlink="http://www.w3.org/1999/xlink" x="0px" y="0px"
	 width="200px" height="225px" viewBox="0 0 200 225" enable-background="new 0 0 200 225" xml:space="preserve">
<path fill="#DDDDDD" d="M158.135,93.597C129.634,31.229,114.82,7.537,68.242,8.529C51.653,8.872,55.641-3.686,42.99,1.081
	c-12.638,4.753-1.788,11.731-14.726,22.522C-8.013,53.878-4.675,81.891,12.151,148.669c7.1,28.114-17.088,29.5-7.525,56.763
	c6.988,19.866,58.491,28.204,112.832,7.689c54.341-20.488,88.631-61.173,81.642-81.064
	C189.536,104.807,170.148,119.855,158.135,93.597z M111.557,196.333c-48.515,18.302-88.405,7.536-90.093,2.758
	c-2.9-8.25,15.664-35.792,71.142-56.725c55.479-20.933,86.443-13.167,89.681-3.953C184.198,143.852,160.098,178.018,111.557,196.333
	z M95.968,151.923c-25.376,9.571-43.003,20.515-54.416,30.377c8.038,7.423,23.076,9.228,38.077,3.572
	c19.088-7.206,30.814-23.742,26.176-36.922c-0.05-0.166-0.137-0.306-0.199-0.458C102.48,149.521,99.268,150.665,95.968,151.923z"/>
</svg>
